<svg width="50" height="25" viewBox="0 0 50 25" fill="none" xmlns="http://www.w3.org/2000/svg">
<path d="M41.7031 0L44.1622 0L45.9585 6.9649L47.7547 0L49.9999 0L47.0276 10.2182V15.2836H44.6754V10.2182L41.7031 0Z" fill="white"/>
<path d="M41.2652 0V2.18336H38.7544V15.2836H36.3527V2.18336H33.8418V0L41.2652 0Z" fill="white"/>
<path d="M28.1801 11.8068C28.1801 12.798 28.5974 13.2937 29.4321 13.2937C30.2669 13.2937 30.6843 12.798 30.6843 11.8068V0L32.9688 0V11.6538C32.9688 12.8928 32.6613 13.8476 32.0462 14.5181C31.4311 15.174 30.5378 15.5019 29.3662 15.5019C28.1947 15.5019 27.3014 15.174 26.6863 14.5181C26.0712 13.8476 25.7637 12.8928 25.7637 11.6538V0L28.1801 0V11.8068Z" fill="white"/>
<path d="M22.2797 15.2836L21.8703 12.5107H18.961L18.5516 15.2836H16.375L18.7886 0L22.2582 0L24.6718 15.2836H22.2797ZM21.547 10.4365L20.4049 2.70734L19.2627 10.4365H21.547Z" fill="white"/>
<path d="M14.6517 6.44092V8.62428H11.3548V13.1002H15.5032V15.2836H8.95312V0L15.5032 0V2.18336H11.3548V6.44092H14.6517Z" fill="white"/>
<path d="M3.62436 0C4.86163 0 5.76407 0.291099 6.33177 0.873372C6.89947 1.441 7.18329 2.32166 7.18329 3.5152V4.06104C7.18329 4.84705 7.05227 5.49483 6.79025 6.00423C6.54279 6.51371 6.15711 6.89218 5.63306 7.13963C6.82668 7.60539 7.42345 8.69707 7.42345 10.4147V11.6591C7.42345 12.8382 7.11049 13.7406 6.48457 14.3666C5.87323 14.9779 4.97078 15.2836 3.77723 15.2836H0V0L3.62436 0ZM2.40167 6.22261H3.34055C3.82088 6.22261 4.17749 6.09889 4.41037 5.85143C4.65782 5.60398 4.78155 5.18915 4.78155 4.60688V3.75537C4.78155 3.20224 4.67968 2.80199 4.47587 2.55454C4.28664 2.30709 3.98104 2.18336 3.55885 2.18336H2.40167V6.22261ZM2.40167 13.1002H3.77723C4.19935 13.1002 4.5123 12.991 4.71604 12.7727C4.91985 12.5398 5.02171 12.1468 5.02171 11.5936V10.2618C5.02171 9.56316 4.89799 9.08282 4.65061 8.8208C4.41765 8.5442 4.02469 8.40597 3.47156 8.40597H2.40167V13.1002Z" fill="white"/>
<path d="M4.34458 14.5744C4.74409 14.489 5.52877 14.6029 5.75707 15.0442C5.9853 15.4855 5.89973 15.7275 5.65715 15.7133C5.41465 15.699 5.47167 15.2292 4.84393 15.5994C4.21619 15.9696 3.01781 17.3647 2.77523 17.9769C2.53273 18.589 2.74668 19.0445 3.78821 18.7171C4.87248 18.3755 7.02682 17.2508 8.41069 16.3112C8.66754 16.1403 8.76738 16.3681 8.35367 16.9092C7.93988 17.4501 3.87377 19.8134 2.97499 19.9415C2.3187 20.0411 1.70523 19.5856 1.50548 19.0588C1.30572 18.5321 1.19161 18.0622 1.50548 17.4358C1.81935 16.8095 3.60273 14.731 4.34458 14.5744ZM9.58418 15.3574C9.81241 15.5282 11.0109 16.3824 10.7113 17.5355C10.4116 18.6887 8.95644 19.5286 8.04331 19.3293C7.11597 19.1442 7.1017 17.9626 7.48694 17.4358C7.8721 16.8949 8.69959 15.8271 9.21322 15.7275C9.27031 15.7133 9.31306 15.699 9.37016 15.6848C9.32734 15.6136 9.27031 15.5567 9.21322 15.5139C8.77096 15.1439 9.34161 15.1865 9.58418 15.3574ZM8.65678 17.9484C8.61403 18.1334 9.21322 17.863 9.47 17.4928C9.56991 17.3647 9.62693 17.0942 9.62693 16.8095C9.19895 17.1796 8.6996 17.806 8.65678 17.9484ZM13.6237 14.375C13.8235 14.489 13.9804 14.7879 13.8948 14.9303C13.8235 15.0584 13.267 15.6848 12.5822 17.6637C13.7236 16.8095 15.2787 14.9588 15.8779 15.0015C16.4771 15.0442 16.7481 15.4713 16.42 16.1973C16.0919 16.9376 15.9064 18.2331 16.2916 18.1192C16.6769 17.9911 17.647 17.4216 18.1035 17.1227C18.5458 16.8379 18.346 17.5498 17.5614 18.2616C16.7624 18.9876 16.1918 19.5428 15.4784 19.429C14.7651 19.3151 14.7365 17.2081 15.1788 16.4535C14.979 16.3254 13.7949 17.9056 12.9389 18.8311C12.0828 19.7564 11.7405 19.8275 11.3695 19.7991C10.9986 19.7564 10.7133 18.7029 10.9273 18.347C11.1412 17.9769 11.3267 17.8487 11.7548 16.7383C12.1685 15.6848 12.5679 14.6313 12.6393 14.4463C12.7249 14.2469 13.1386 14.1046 13.6237 14.375ZM20.8408 14.5744C21.2403 14.489 22.0249 14.6029 22.2532 15.0442C22.4815 15.4855 22.3959 15.7275 22.1533 15.7133C21.9108 15.699 21.9679 15.2292 21.3401 15.5994C20.7124 15.9696 19.514 17.3647 19.2714 17.9769C19.0289 18.589 19.2429 19.0445 20.2844 18.7171C21.3686 18.3755 23.523 17.2508 24.9069 16.3112C25.1637 16.1403 25.2635 16.3681 24.8498 16.9092C24.4361 17.4501 20.3699 19.8134 19.4712 19.9415C18.8149 20.0411 18.2014 19.5856 18.0016 19.0588C17.8019 18.5321 17.6878 18.0622 18.0016 17.4358C18.3155 16.8095 20.0989 14.731 20.8408 14.5744ZM28.4201 16.7952C28.9195 16.4963 29.0621 16.7952 28.5913 17.2224C28.1205 17.6494 25.5382 19.5571 24.996 19.6994C24.4682 19.856 23.8832 19.3435 23.9688 18.5463C24.0544 17.7633 24.6821 16.2828 25.0674 15.8129C25.4526 15.3431 25.5525 15.3431 25.6666 15.3431C25.9377 15.3431 26.4798 15.9411 26.4512 16.1831C26.437 16.4109 26.3229 16.4394 26.0661 16.5817C25.8092 16.7383 24.8962 18.5748 25.2957 18.4466C25.7094 18.3185 27.935 17.0942 28.4201 16.7952ZM26.8222 14.4463C26.5797 14.6456 25.9662 14.8733 25.795 14.5316C25.6238 14.19 25.4526 13.6348 25.6808 13.5494C25.9234 13.4639 26.437 13.3216 26.5226 13.3216C26.7508 13.2931 26.9649 13.7487 27.1361 13.9622C27.3073 14.1758 27.0505 14.2612 26.8222 14.4463ZM32.4424 17.2508C33.4268 16.6813 33.0131 17.5355 32.585 17.7918C32.157 18.0481 29.6746 19.372 28.6759 19.5855C27.663 19.7991 27.235 19.0303 27.3491 18.4466C27.4489 17.8772 28.0482 16.6813 28.8043 15.9696C29.5462 15.272 30.1312 15.2008 30.4308 15.2292C30.8159 15.2577 31.3866 15.9268 31.4579 16.5105C31.515 17.08 30.6162 17.5782 30.0598 17.8345C29.5034 18.0907 29.0326 18.4466 28.6474 17.8487C28.519 18.0053 28.305 18.4894 29.0326 18.4466C29.7602 18.4039 31.4579 17.8345 32.4424 17.2508ZM30.1882 16.4251C29.7602 16.596 29.5747 16.7668 29.2894 17.1084C29.5462 17.0373 30.1026 16.781 30.1882 16.4251ZM36.9034 16.4535C36.9747 17.1084 36.9605 17.4501 36.6893 17.4501C36.4183 17.4501 35.7906 17.2366 35.8476 16.8522C35.8904 16.4678 35.6194 16.3824 35.3198 16.5247C35.2199 16.5817 34.9631 16.6956 34.692 16.8237C34.4067 17.3362 34.2212 17.7206 34.1071 18.0907C33.8074 18.8595 34.1356 19.2581 33.1511 19.7849C32.7517 19.9984 32.4378 20.0269 32.2809 19.6283C31.9385 18.7456 33.4651 16.4109 33.6648 15.9553C33.8502 15.4997 33.7647 15.2577 34.0785 15.0299C34.5351 14.7167 34.7206 14.5744 34.9345 14.8876C35.12 15.1723 35.7477 14.9018 35.2627 15.7987C35.8334 15.4001 36.4183 15.0015 36.6893 15.0015C37.146 15.0015 36.8463 15.7987 36.9034 16.4535ZM42.807 17.564C43.2921 17.5071 43.1066 17.8487 42.2649 18.1477C42.2078 18.1619 42.1222 18.1904 42.0366 18.2331C41.7227 19.1442 41.3375 20.1123 40.9666 20.7529C39.6112 23.1019 37.2571 23.7568 36.1871 23.9988C35.3882 24.1696 34.5892 23.23 35.0315 21.9203C35.431 20.7956 37.5567 19.0445 41.0522 18.0053C41.309 17.2508 41.4516 16.6386 41.523 16.3539C41.5373 16.2969 41.5515 16.2543 41.5515 16.1973C40.5528 16.8949 39.597 17.4216 39.0833 17.6779C38.4984 17.9626 37.8279 17.322 37.9134 16.9234C37.9991 16.5105 39.2117 15.5994 39.7966 15.272C40.3103 14.973 40.881 15.1296 41.1235 15.1865C41.4802 15.2577 41.2234 15.514 41.0949 15.5709C40.6241 15.756 39.3972 16.7668 40.0249 16.5247C40.5814 16.3112 41.3803 15.6279 41.6799 15.3574C41.7227 15.1723 41.7655 15.0584 41.8369 15.1154C42.0794 15.2435 42.7785 15.3858 42.7214 15.8984C42.6928 16.1262 42.4932 16.8522 42.222 17.6921C42.4075 17.6494 42.6073 17.6067 42.807 17.564ZM39.9394 20.4682C40.2817 19.8987 40.5671 19.3008 40.7953 18.7313C39.868 19.13 38.7409 19.6709 37.7279 20.3401C36.0588 21.4505 35.3739 23.0165 35.9588 22.9738C36.5296 22.9311 38.9264 22.1196 39.9394 20.4682ZM48.5206 17.2508C49.505 16.6813 49.0913 17.5355 48.6632 17.7918C48.2353 18.0481 45.7528 19.372 44.7541 19.5855C43.7412 19.7991 43.3132 19.0303 43.4273 18.4466C43.5271 17.8772 44.1263 16.6813 44.8825 15.9696C45.6244 15.272 46.2094 15.2008 46.509 15.2292C46.8941 15.2577 47.4649 15.9268 47.5362 16.5105C47.5932 17.08 46.6944 17.5782 46.138 17.8345C45.5816 18.0907 45.1108 18.4466 44.7256 17.8487C44.5972 18.0053 44.3832 18.4894 45.1108 18.4466C45.8384 18.4039 47.5362 17.8345 48.5206 17.2508ZM46.2664 16.4251C45.8384 16.596 45.6529 16.7668 45.3676 17.1084C45.6244 17.0373 46.1808 16.781 46.2664 16.4251Z" fill="#FF5596"/>
</svg>
